<svg width="68" height="34" viewBox="0 0 68 34" fill="none" xmlns="http://www.w3.org/2000/svg">
<path d="M13.2274 33H19.1674V26.488H22.5554V20.9H19.1674V0.879999H12.4794L0.203359 20.9V26.488H13.2274V33ZM6.53936 20.9L13.2274 10.032V20.9H6.53936ZM37.2025 27.368C34.0785 27.368 32.4065 25.344 32.4065 22.66V11.396C32.4065 8.624 34.1665 6.468 37.2905 6.468C40.3265 6.468 42.0865 8.448 42.0865 11.396V22.704C42.0865 25.3 40.3265 27.368 37.2025 27.368ZM37.2465 33.44C44.1105 33.44 48.2025 29.26 48.2025 22.968V11.132C48.2025 5.236 43.8905 0.44 37.2465 0.44C30.7785 0.44 26.2905 5.104 26.2905 11.176V22.968C26.2905 29.128 30.1625 33.44 37.2465 33.44ZM51.7177 19.536H57.3497V25.124H62.4097V19.536H67.9977V14.388H62.4097V8.844H57.3497V14.388H51.7177V19.536Z" fill="black"/>
</svg>
