<svg width="95" height="34" viewBox="0 0 95 34" fill="none" xmlns="http://www.w3.org/2000/svg">
<path d="M13.7938 33H19.7338V26.488H23.1218V20.9H19.7338V0.879999H13.0458L0.769766 20.9V26.488H13.7938V33ZM7.10577 20.9L13.7938 10.032V20.9H7.10577ZM37.769 33.44C44.545 33.44 49.429 28.6 49.429 22.22C49.429 14.52 44.457 10.78 38.605 10.78C36.009 10.78 34.117 11.484 32.797 12.276L33.633 6.6H48.065V0.879999H28.837L26.549 16.72L32.005 19.536C33.237 17.688 34.909 16.368 37.681 16.368C41.157 16.368 43.269 18.964 43.269 22.176C43.269 25.476 40.673 27.808 37.857 27.808C34.909 27.808 32.797 26.18 31.917 23.76L25.977 27.192C27.825 30.756 31.697 33.44 37.769 33.44ZM64.6041 33L72.8321 19.668C74.3281 17.424 75.2961 14.608 75.2961 11.572C75.2961 5.368 70.4121 0.44 63.6361 0.44C57.0361 0.44 52.0641 5.06 52.0641 11.616C52.0641 18.172 56.6841 22.792 62.4041 22.792C62.9321 22.792 63.5041 22.748 64.0761 22.616L57.3881 33H64.6041ZM63.7681 17.468C60.6881 17.468 58.0921 14.828 58.0921 11.748C58.0921 8.58 60.6881 5.984 63.7681 5.984C66.8481 5.984 69.3121 8.58 69.3121 11.704C69.3121 14.828 66.8481 17.468 63.7681 17.468ZM78.1513 19.536H83.7833V25.124H88.8433V19.536H94.4313V14.388H88.8433V8.844H83.7833V14.388H78.1513V19.536Z" fill="black"/>
</svg>
