<svg width="92" height="33" viewBox="0 0 92 33" fill="none" xmlns="http://www.w3.org/2000/svg">
<path d="M-0.000468671 33H21.9115V27.148H14.1235V0.879999H8.22753C8.22753 3.168 6.77553 6.16 2.55153 6.16H2.33153V12.584H2.81553C4.79553 12.584 6.99553 11.44 8.00753 9.944V27.148H-0.000468671V33ZM25.8667 33H47.7787V27.148H31.9827C32.0267 24.156 35.5027 22.176 39.1547 19.932C43.3787 17.38 47.9547 14.564 47.9547 9.46C47.9547 4.4 43.8187 0.44 36.7787 0.44C31.1907 0.44 27.2747 3.212 25.1627 7.612L30.4427 10.252C31.6747 7.568 33.6987 5.72 36.8227 5.72C40.0347 5.72 41.7507 7.392 41.7507 9.416C41.7507 11.836 38.5827 13.596 35.1507 15.752C30.7947 18.436 25.8667 21.736 25.8667 27.236V33ZM66.2539 33H72.8539L64.4059 20.504L72.4139 11H65.4179L57.3219 20.724V0.879999H51.2939V33H57.3219V27.676L60.2699 24.2L66.2539 33ZM75.1416 19.536H80.7736V25.124H85.8336V19.536H91.4216V14.388H85.8336V8.844H80.7736V14.388H75.1416V19.536Z" fill="black"/>
</svg>
